<?xml version="1.0" encoding="iso-8859-1"?>
<!-- Generator: Adobe Illustrator 19.0.0, SVG Export Plug-In . SVG Version: 6.00 Build 0)  -->
<svg version="1.1" id="Layer_1" xmlns="http://www.w3.org/2000/svg" xmlns:xlink="http://www.w3.org/1999/xlink" x="0px" y="0px"
	 viewBox="0 0 473.931 473.931" style="enable-background:new 0 0 473.931 473.931;" xml:space="preserve">
<circle style="fill:#4A86C5;" cx="236.966" cy="236.966" r="236.966"/>
<path style="fill:#3D80B2;" d="M404.518,69.383c92.541,92.549,92.549,242.59,0,335.138c-92.541,92.541-242.593,92.541-335.134,0
	L404.518,69.383z"/>
<path style="fill:#4A86C5;" d="M462.646,309.275c0.868-2.713,1.658-5.456,2.432-8.206
	C464.307,303.823,463.496,306.562,462.646,309.275z"/>
<g>
	<polygon style="fill:#377CA5;" points="465.097,301.017 465.097,301.017 465.082,301.07 	"/>
	<path style="fill:#377CA5;" d="M465.097,301.017L336.721,172.641l-29.204,29.204l-20.303-20.303l-16.946,16.946L171.032,99.25
		l-6.155-2.346l-38.08,38.08l45.968,45.964l-44.998,44.995l43.943,43.943l-48.048,48.052L276.475,470.59
		c87.984-14.78,159.5-77.993,186.175-161.311c0.849-2.716,1.658-5.452,2.432-8.206C465.082,301.055,465.09,301.032,465.097,301.017z
		"/>
</g>
<path style="fill:#FFFFFF;" d="M358.565,230.459v87.883h-50.944v-81.997c0-20.595-7.375-34.656-25.811-34.656
	c-14.084,0-22.458,9.474-26.147,18.634c-1.343,3.278-1.688,7.835-1.688,12.423v85.593H203.02c0,0,0.681-138.875,0-153.259h50.952
	V186.8c-0.094,0.161-0.236,0.34-0.329,0.498h0.329V186.8c6.769-10.425,18.862-25.324,45.923-25.324
	C333.432,161.479,358.565,183.384,358.565,230.459z M149.7,91.198c-17.429,0-28.838,11.439-28.838,26.473
	c0,14.716,11.072,26.495,28.164,26.495h0.344c17.766,0,28.823-11.779,28.823-26.495C177.857,102.636,167.137,91.198,149.7,91.198z
	 M123.886,318.341h50.944V165.083h-50.944V318.341z"/>
<g>
</g>
<g>
</g>
<g>
</g>
<g>
</g>
<g>
</g>
<g>
</g>
<g>
</g>
<g>
</g>
<g>
</g>
<g>
</g>
<g>
</g>
<g>
</g>
<g>
</g>
<g>
</g>
<g>
</g>
</svg>
